<svg width="39" height="56" viewBox="0 0 39 56" fill="none" xmlns="http://www.w3.org/2000/svg">
  <path d="M1.955 41.926h34.88M5.896 48.357h27m-14-47v14m.074-.714v26.431M30.03 4.41 18.97 15.494m15.314-6.82L18.97 24.02m17.866-8.526L18.97 32.547m18.717-9.379L18.97 41.926m18.717-10.231-10.21 10.232M1.104 31.695l10.21 10.232M8.761 4.41l10.21 11.084M4.507 8.674 18.97 24.02M1.955 14.643 18.97 32.548M1.104 22.316 18.97 41.074m.426 13.642c-10.101 0-18.292-8.452-18.292-18.88V19.88C1.104 9.454 9.294 1 19.396 1s18.29 8.454 18.29 18.88v15.955c.002 10.429-8.188 18.88-18.29 18.88Z" stroke="#7EB693" stroke-width="2" stroke-miterlimit="10"/>
</svg>